<svg width="37" height="37" viewBox="0 0 37 37" fill="none" xmlns="http://www.w3.org/2000/svg">
<g clip-path="url(#clip0_135_15076)">
<path d="M18.5 3.5C10.22 3.5 3.5 10.22 3.5 18.5C3.5 26.78 10.22 33.5 18.5 33.5C26.78 33.5 33.5 26.78 33.5 18.5C33.5 10.22 26.78 3.5 18.5 3.5ZM18.5 30.5C11.885 30.5 6.5 25.115 6.5 18.5C6.5 11.885 11.885 6.5 18.5 6.5C25.115 6.5 30.5 11.885 30.5 18.5C30.5 25.115 25.115 30.5 18.5 30.5ZM14.75 25.25L25.25 18.5L14.75 11.75V25.25Z" fill="#7EC0FC"/>
</g>
<defs>
<clipPath id="clip0_135_15076">
<rect width="36" height="36" fill="white" transform="translate(0.5 0.5)"/>
</clipPath>
</defs>
</svg>
